<svg width="27" height="24" viewBox="0 0 27 24" fill="currentColor" xmlns="http://www.w3.org/2000/svg">
<path d="M6 0H3V3H6V0ZM9 0H6V3H9V0ZM3 3H0V6H3V3ZM3 6H0V9H3V6ZM3 9H0V12H3V9ZM12 0H9V3H12V0ZM6 12H3V15H6V12ZM9 15H6V18H9V15ZM12 18H9V21H12V18ZM21 0H24V3H21V0ZM18 0H21V3H18V0ZM24 3H27V6H24V3ZM24 6H27V9H24V6ZM24 9H27V12H24V9ZM15 0H18V3H15V0ZM21 12H24V15H21V12ZM18 15H21V18H18V15ZM15 18H18V21H15V18ZM15 21H12V24H15V21ZM15 3H12V6H15V3Z" fill="black"/>
<path d="M6 3H3V6H6V3ZM9 6H6V9H9V6ZM12 3H9V6H12V3ZM6 9H3V12H6V9ZM9 9H6V12H9V9ZM9 12H6V15H9V12ZM12 6H9V9H12V6ZM12 15H9V18H12V15ZM12 12H9V15H12V12ZM21 3H24V6H21V3ZM18 3H21V6H18V3ZM21 6H24V9H21V6ZM18 6H21V9H18V6ZM15 3H18V6H15V3ZM21 9H24V12H21V9ZM18 9H21V12H18V9ZM18 12H21V15H18V12ZM15 6H18V9H15V6ZM15 15H18V18H15V15ZM15 12H18V15H15V12ZM15 15H12V18H15V15ZM15 18H12V21H15V18Z" fill="#FF0000"/>
<path d="M12 9H9V12H12V9ZM15 9H18V12H15V9ZM15 9H12V12H15V9ZM15 6H12V9H15V6ZM15 12H12V15H15V12Z" fill="white"/>
</svg>
